<?xml version="1.0" standalone="no"?><svg xmlns="http://www.w3.org/2000/svg" viewBox="0 0 1440 320" preserveAspectRatio="none"><path fill="#6181b6" fill-opacity="1" d="M0,64L17.1,64C34.3,64,69,64,103,69.3C137.1,75,171,85,206,90.7C240,96,274,96,309,90.7C342.9,85,377,75,411,106.7C445.7,139,480,213,514,229.3C548.6,245,583,203,617,181.3C651.4,160,686,160,720,160C754.3,160,789,160,823,176C857.1,192,891,224,926,224C960,224,994,192,1029,149.3C1062.9,107,1097,53,1131,42.7C1165.7,32,1200,64,1234,69.3C1268.6,75,1303,53,1337,80C1371.4,107,1406,181,1423,218.7L1440,256L1440,0L1422.9,0C1405.7,0,1371,0,1337,0C1302.9,0,1269,0,1234,0C1200,0,1166,0,1131,0C1097.1,0,1063,0,1029,0C994.3,0,960,0,926,0C891.4,0,857,0,823,0C788.6,0,754,0,720,0C685.7,0,651,0,617,0C582.9,0,549,0,514,0C480,0,446,0,411,0C377.1,0,343,0,309,0C274.3,0,240,0,206,0C171.4,0,137,0,103,0C68.6,0,34,0,17,0L0,0Z"></path></svg>